<svg xmlns="http://www.w3.org/2000/svg" version="1.1" xmlns:xlink="http://www.w3.org/1999/xlink" xmlns:svgjs="http://svgjs.com/svgjs" width="1440" height="560" preserveAspectRatio="none" viewBox="0 0 1440 560"><g mask="url(&quot;#SvgjsMask1040&quot;)" fill="none"><rect width="1440" height="560" x="0" y="0" fill="#0e2a47"></rect><path d="M348.99404467824957 109.68556539546012L219.08360359279573 51.84571050313149 161.2437487004671 181.75615158858534 291.15418978592095 239.59600648091396z" fill="rgba(28, 83, 142, 0.4)" class="triangle-float1"></path><path d="M728.3295538718886 143.1067582003445L758.2695740426187 283.9634785739532 869.1862742454973 113.16673802961441z" fill="rgba(28, 83, 142, 0.4)" class="triangle-float3"></path><path d="M104.796,389.127C138.187,390.871,176.975,386.852,192.855,357.427C208.336,328.742,185.783,297.468,169.502,269.229C153.194,240.944,137.347,207.221,104.796,204.696C69.191,201.934,36.202,225.806,20.003,257.632C5.084,286.944,13.528,321.349,31.352,348.99C47.557,374.12,74.935,387.567,104.796,389.127" fill="rgba(28, 83, 142, 0.4)" class="triangle-float1"></path><path d="M1037.8483837313213 367.18036246301267L1120.5174900423194 311.41934617649235 1064.756473755799 228.75023986549425 982.087367444801 284.51125615201454z" fill="rgba(28, 83, 142, 0.4)" class="triangle-float1"></path><path d="M317.072,511.553C363.612,512.611,413.989,505.278,439.206,466.148C466.152,424.334,459.256,370.942,436.037,326.949C410.937,279.391,370.843,234.11,317.072,234.737C264.005,235.355,226.522,282.186,202.813,329.667C181.882,371.586,179.266,421.132,204.189,460.807C227.71,498.249,272.866,510.548,317.072,511.553" fill="rgba(28, 83, 142, 0.4)" class="triangle-float2"></path><path d="M295.285,604.972C330.929,606.055,357.175,575.043,374.002,543.603C389.731,514.214,395.912,478.512,378.019,450.389C361.108,423.809,326.788,420.185,295.285,419.878C263.021,419.564,226.197,421.013,209.71,448.749C193.005,476.85,208.732,510.388,224.437,539.059C241.046,569.379,260.73,603.922,295.285,604.972" fill="rgba(28, 83, 142, 0.4)" class="triangle-float3"></path><path d="M647.5341766543354 486.88746707749004L583.2542687705777 424.81308158851255 585.4597911653578 551.1673749612478z" fill="rgba(28, 83, 142, 0.4)" class="triangle-float3"></path><path d="M443.93321594799244 146.62939986095728L554.8412651313085 299.58756990974746 624.6407892888819 149.90200730555728z" fill="rgba(28, 83, 142, 0.4)" class="triangle-float2"></path><path d="M554.209,304.965C584.528,303.582,599.89,272.016,615.159,245.785C630.575,219.301,651.656,189.71,636.947,162.827C621.944,135.407,585.465,134.509,554.209,134.393C522.661,134.276,486.793,135.254,470.402,162.21C453.609,189.826,466.439,223.949,482.802,251.822C498.902,279.246,522.441,306.414,554.209,304.965" fill="rgba(28, 83, 142, 0.4)" class="triangle-float3"></path></g><defs><mask id="SvgjsMask1040"><rect width="1440" height="560" fill="#ffffff"></rect></mask><style>
            @keyframes float1 {
                0%{transform: translate(0, 0)}
                50%{transform: translate(-10px, 0)}
                100%{transform: translate(0, 0)}
            }

            .triangle-float1 {
                animation: float1 5s infinite;
            }

            @keyframes float2 {
                0%{transform: translate(0, 0)}
                50%{transform: translate(-5px, -5px)}
                100%{transform: translate(0, 0)}
            }

            .triangle-float2 {
                animation: float2 4s infinite;
            }

            @keyframes float3 {
                0%{transform: translate(0, 0)}
                50%{transform: translate(0, -10px)}
                100%{transform: translate(0, 0)}
            }

            .triangle-float3 {
                animation: float3 6s infinite;
            }
        </style></defs></svg>