<svg xmlns="http://www.w3.org/2000/svg" version="1.1" xmlns:xlink="http://www.w3.org/1999/xlink" xmlns:svgjs="http://svgjs.com/svgjs" width="1440" height="560" preserveAspectRatio="none" viewBox="0 0 1440 560"><g mask="url(&quot;#SvgjsMask1000&quot;)" fill="none"><rect width="1440" height="560" x="0" y="0" fill="#1e3266"></rect><path d="M1536 560L0 560 L0 360.72Q44.77 285.5, 120 330.27Q186.49 276.75, 240 343.24Q283.35 314.59, 312 357.93Q353.15 279.08, 432 320.22Q516.95 285.17, 552 370.12Q570.45 316.57, 624 335.03Q637.57 276.6, 696 290.16Q740.78 262.94, 768 307.72Q834.89 302.62, 840 369.51Q856.97 266.48, 960 283.45Q1002.54 253.99, 1032 296.52Q1129.8 274.32, 1152 372.12Q1163.65 311.77, 1224 323.42Q1269.76 249.18, 1344 294.94Q1385.39 264.34, 1416 305.73Q1510.47 280.21, 1536 374.68z" fill="#182f5d"></path><path d="M1536 560L0 560 L0 442.39Q22.41 344.8, 120 367.21Q190.12 317.32, 240 387.44Q318.56 346, 360 424.56Q360.17 352.73, 432 352.9Q492.22 293.12, 552 353.33Q603.78 333.11, 624 384.89Q703.25 344.14, 744 423.4Q749.22 356.62, 816 361.83Q846.53 320.36, 888 350.88Q938.25 329.13, 960 379.39Q1003.25 350.63, 1032 393.88Q1098.69 340.57, 1152 407.26Q1204.24 387.5, 1224 439.73Q1235.99 379.72, 1296 391.7Q1345.61 321.31, 1416 370.92Q1495.61 330.52, 1536 410.13z" fill="#25467d"></path><path d="M1512 560L0 560 L0 488.83Q15.63 432.45, 72 448.08Q114.58 418.66, 144 461.24Q197.94 443.18, 216 497.11Q263.6 424.71, 336 472.3Q390.78 407.08, 456 461.85Q480.63 414.49, 528 439.12Q616.29 407.41, 648 495.71Q691.69 467.4, 720 511.1Q732.54 451.64, 792 464.19Q836.5 388.69, 912 433.2Q980.2 381.4, 1032 449.61Q1087.62 433.23, 1104 488.85Q1149.65 462.5, 1176 508.15Q1201.49 413.64, 1296 439.14Q1339.16 410.31, 1368 453.47Q1433.45 446.92, 1440 512.37Q1468.35 468.72, 1512 497.06z" fill="#356cb1"></path><path d="M1560 560L0 560 L0 546.59Q34.85 509.44, 72 544.29Q82.42 482.71, 144 493.14Q188.71 465.85, 216 510.56Q294.78 469.34, 336 548.12Q411.21 503.33, 456 578.53Q469.64 520.17, 528 533.82Q593.11 478.93, 648 544.05Q705.33 529.38, 720 586.71Q721.97 516.68, 792 518.65Q822.21 476.86, 864 507.06Q918.85 489.9, 936 544.75Q1009.03 497.78, 1056 570.81Q1097.89 540.7, 1128 582.59Q1166.31 500.9, 1248 539.22Q1292.8 464.02, 1368 508.82Q1395.78 464.6, 1440 492.38Q1542.61 474.99, 1560 577.59z" fill="white"></path></g><defs><mask id="SvgjsMask1000"><rect width="1440" height="560" fill="#ffffff"></rect></mask></defs></svg>