<svg xmlns="http://www.w3.org/2000/svg" version="1.1" xmlns:xlink="http://www.w3.org/1999/xlink" xmlns:svgjs="http://svgjs.com/svgjs" width="1440" height="560" preserveAspectRatio="none" viewBox="0 0 1440 560"><g mask="url(&quot;#SvgjsMask1000&quot;)" fill="none"><rect width="1440" height="560" x="0" y="0" fill="#0e2a47"></rect><path d="M0,424.548C81.789,431.227,160.491,400.925,233.161,362.805C311.203,321.867,397.514,278.406,432.662,197.59C467.673,117.088,440.782,24.552,417.026,-59.959C395.616,-136.124,345.751,-196.036,303.254,-262.771C252.622,-342.281,229.873,-451.139,143.656,-489.246C56.671,-527.693,-44.018,-487.093,-133.889,-455.984C-220.385,-426.043,-298.376,-379.431,-362.443,-314.059C-429.591,-245.543,-509.892,-169.119,-509.043,-73.189C-508.198,22.321,-415.437,87.114,-358.217,163.592C-313.296,223.631,-270.515,282.471,-209.908,326.623C-146.212,373.024,-78.544,418.134,0,424.548" fill="#091b2e"></path><path d="M1440 1057.127C1531.81 1050.189 1610.6399999999999 995.1030000000001 1683.201 938.428 1750.57 885.809 1790.1019999999999 811.623 1841.637 743.421 1909.387 653.759 2021.422 586.361 2033.642 474.647 2046.3319999999999 358.64 1997.7649999999999 228.245 1905.858 156.33100000000002 1815.458 85.596 1683.173 138.51299999999998 1571.289 112.87099999999998 1468.926 89.411 1384.013 4.626999999999953 1279.31 12.739000000000033 1165.441 21.561000000000035 1058.775 79.06099999999998 977.113 158.906 891.495 242.62 817.804 350.101 811.955 469.701 806.252 586.31 878.912 690.173 946.4739999999999 785.386 1004.7429999999999 867.5029999999999 1083.768 928.495 1171.971 977.0609999999999 1255.341 1022.9649999999999 1345.099 1064.299 1440 1057.127" fill="#133960"></path></g><defs><mask id="SvgjsMask1000"><rect width="1440" height="560" fill="#ffffff"></rect></mask></defs></svg>